control3min_grf.mot
version=1
nRows=10
nColumns 19
inDegrees=yes
endheader
time	1_ground_force_vx	1_ground_force_vy	1_ground_force_vz	1_ground_force_px	1_ground_force_py	1_ground_force_pz	1_ground_torque_x	1_ground_torque_y	1_ground_torque_z	2_ground_force_vx	2_ground_force_vy	2_ground_force_vz	2_ground_force_px	2_ground_force_py	2_ground_force_pz	2_ground_torque_x	2_ground_torque_y	2_ground_torque_z
            1.253500	            0.275379	            1.981796	            0.282955	           -0.233013	            0.005581	           -0.255695	           -0.031642	           -0.073978	            0.049015	           -6.886322	           11.790922	           -8.402098	           -0.053762	            0.005925	           -0.595689	            0.006638	           -0.011367	            0.008100
            1.254000	            0.000630	            2.161419	            0.421979	           -0.233013	            0.005581	           -0.255695	            0.056114	           -0.073921	           -0.000533	           -7.121380	           11.975396	           -8.729838	           -0.055793	            0.005921	           -0.596491	           -0.015635	            0.026293	           -0.019167
            1.254500	            0.230285	            1.620076	            0.556659	           -0.233013	            0.005581	           -0.255695	           -0.024375	           -0.073988	            0.047055	           -7.027721	           11.976069	           -8.823734	           -0.059862	            0.005916	           -0.599204	            0.008384	           -0.014287	            0.010527
            1.255000	            0.459629	            2.160524	            0.650121	           -0.233013	            0.005581	           -0.255695	            0.083800	           -0.128916	           -0.037685	           -6.981474	           12.159885	           -8.682312	           -0.058344	            0.005914	           -0.597072	           -0.016599	            0.028910	           -0.020642
            1.255500	            0.276095	            1.800351	            0.557318	           -0.233013	            0.005581	           -0.255695	            0.069240	           -0.101437	           -0.007741	           -7.029112	           12.344868	           -8.963204	           -0.064833	            0.005884	           -0.595350	           -0.008111	            0.014245	           -0.010343
            1.256000	            0.184556	            1.619871	            0.602628	           -0.233013	            0.005581	           -0.255695	           -0.007599	           -0.129384	            0.026023	           -6.981515	           12.160219	           -8.776168	           -0.056512	            0.005900	           -0.591421	           -0.004178	            0.007277	           -0.005252
            1.256500	            0.138174	            2.702046	            0.469812	           -0.233013	            0.005581	           -0.255695	           -0.002257	           -0.074271	            0.099446	           -6.792828	           11.792934	           -8.871418	           -0.060938	            0.005872	           -0.587988	           -0.015501	            0.026912	           -0.020245
            1.257000	            0.321483	            1.801146	            0.373780	           -0.233013	            0.005581	           -0.255695	            0.058243	           -0.082857	           -0.024477	           -6.982844	           12.528516	           -8.774854	           -0.068118	            0.005889	           -0.599950	           -0.059763	            0.107226	           -0.075100
            1.257500	            0.184508	            1.259536	            0.555227	           -0.233013	            0.005581	           -0.255695	           -0.061699	           -0.037043	            0.045365	           -7.076565	           12.528345	           -8.821743	           -0.057289	            0.005933	           -0.601455	           -0.003009	            0.005327	           -0.003751
            1.258000	           -0.045342	            1.621006	            0.328062	           -0.233013	            0.005581	           -0.255695	            0.022688	           -0.101441	           -0.058898	           -6.935933	           12.528183	           -8.634090	           -0.065509	            0.005918	           -0.605403	            0.003913	           -0.007068	            0.004871
